# xmcd
#
# Track frame offsets:
#	150
#	15302
#	28537
#	41560
#	55842
#	66207
#	80960
#	97550
#	111785
#	124725
#	141125
#	150380
#	164530
#	180962
#	194357
#	205120
#	214802
#	230575
#	246637
#	259697
#
# Disc length: 3640 seconds
#
# Revision: 0
# Processed by: cddbd v1.5.1PL0 Copyright (c) Steve Scherf et al.
# Submitted via: dBpowerAMP V4.0
#
DISCID=0e0e3614
DTITLE=JOÃO MINEIRO E MARCIANO - raizes sertanejas vol 2
DYEAR=2003
DGENRE=sertanejo
TTITLE0=viciado em voce
TTITLE1=ontem eu chorei demais
TTITLE2=amor e amizade
TTITLE3=a bailarina
TTITLE4=filho adotivo
TTITLE5=chuvas de maio
TTITLE6=seu amor ainda é tudo
TTITLE7=benza deus
TTITLE8=telefone mais
TTITLE9=devolva a passagem
TTITLE10=fatalidade
TTITLE11=a prentendida
TTITLE12=como é que posso ser feliz sem voce
TTITLE13=filha de maria
TTITLE14=não adianta dizer que me ama
TTITLE15=a mulher do palhaço
TTITLE16=a artista
TTITLE17=quem ama tambem separa
TTITLE18=filha de jesus
TTITLE19=ultimo café
EXTD=
EXTT0=
EXTT1=
EXTT2=
EXTT3=
EXTT4=
EXTT5=
EXTT6=
EXTT7=
EXTT8=
EXTT9=
EXTT10=
EXTT11=
EXTT12=
EXTT13=
EXTT14=
EXTT15=
EXTT16=
EXTT17=
EXTT18=
EXTT19=
PLAYORDER=
